STARTFONT 2.1
COMMENT HP/COL 16500B Small Font
FONT -Misc-Fixed-Medium-R-Normal--14-120-75-75-M-80-ISO8859-1
SIZE 14 75 75
FONTBOUNDINGBOX 8 14 0 -3
STARTPROPERTIES 19
FONTNAME_REGISTRY ""
FOUNDRY "Misc"
FAMILY_NAME "Fixed"
WEIGHT_NAME "Medium"
SLANT "R"
SETWIDTH_NAME "Normal"
ADD_STYLE_NAME ""
PIXEL_SIZE 14
POINT_SIZE 120
RESOLUTION_X 75
RESOLUTION_Y 75
SPACING "M"
AVERAGE_WIDTH 80
CHARSET_REGISTRY "ISO8859"
CHARSET_ENCODING "1"
DEFAULT_CHAR 32
FONT_DESCENT 3
FONT_ASCENT 11
COPYRIGHT "Hewlett-Packard / Colorado Springs Division 1993."
ENDPROPERTIES
CHARS 128
STARTCHAR HP
ENCODING 0
SWIDTH 600 0
DWIDTH 8 0
BBX 8 14 0 -3
BITMAP
0000
8800
8800
8800
F800
8800
8800
8800
3C00
2200
2200
3C00
2000
2000
ENDCHAR
STARTCHAR DOWN_AR
ENCODING 1
SWIDTH 600 0
DWIDTH 8 0
BBX 8 14 0 -3
BITMAP
0000
0000
1000
1000
1000
1000
1000
1000
7C00
3800
1000
0000
0000
0000
ENDCHAR
STARTCHAR UP_ARRO
ENCODING 2
SWIDTH 600 0
DWIDTH 8 0
BBX 8 14 0 -3
BITMAP
0000
0000
1000
3800
7C00
1000
1000
1000
1000
1000
1000
0000
0000
0000
ENDCHAR
STARTCHAR UP_DOWN
ENCODING 3
SWIDTH 600 0
DWIDTH 8 0
BBX 8 14 0 -3
BITMAP
0000
0000
1000
3800
7C00
1000
1000
1000
7C00
3800
1000
0000
0000
0000
ENDCHAR
STARTCHAR LOW_LVL
ENCODING 4
SWIDTH 600 0
DWIDTH 8 0
BBX 8 14 0 -3
BITMAP
0000
0000
0000
0000
0000
0000
0000
0000
0000
0000
7C00
0000
0000
0000
ENDCHAR
STARTCHAR HIGH_LV
ENCODING 5
SWIDTH 600 0
DWIDTH 8 0
BBX 8 14 0 -3
BITMAP
0000
0000
7C00
0000
0000
0000
0000
0000
0000
0000
0000
0000
0000
0000
ENDCHAR
STARTCHAR ACTIVE
ENCODING 6
SWIDTH 600 0
DWIDTH 8 0
BBX 8 14 0 -3
BITMAP
0000
0000
1000
3800
7C00
1000
1000
1000
7C00
3800
1000
0000
0000
0000
ENDCHAR
STARTCHAR RIGHT_A
ENCODING 7
SWIDTH 600 0
DWIDTH 8 0
BBX 8 14 0 -3
BITMAP
0000
0000
0000
0000
0800
0C00
FE00
0C00
0800
0000
0000
0000
0000
0000
ENDCHAR
STARTCHAR LEFT_AR
ENCODING 8
SWIDTH 600 0
DWIDTH 8 0
BBX 8 14 0 -3
BITMAP
0000
0000
0000
0000
2000
6000
FE00
6000
2000
0000
0000
0000
0000
0000
ENDCHAR
STARTCHAR NOT_EQ
ENCODING 9
SWIDTH 600 0
DWIDTH 8 0
BBX 8 14 0 -3
BITMAP
0000
0000
0000
0000
0200
0400
FE00
1000
FE00
4000
8000
0000
0000
0000
ENDCHAR
STARTCHAR AND_DOT
ENCODING 10
SWIDTH 600 0
DWIDTH 8 0
BBX 8 14 0 -3
BITMAP
0000
0000
0000
0000
0000
1000
3800
3800
1000
0000
0000
0000
0000
0000
ENDCHAR
STARTCHAR ALL_DOT
ENCODING 11
SWIDTH 600 0
DWIDTH 8 0
BBX 8 14 0 -3
BITMAP
FE00
FE00
FE00
FE00
FE00
FE00
FE00
FE00
FE00
FE00
FE00
FE00
FE00
FE00
ENDCHAR
STARTCHAR X_O_MKR
ENCODING 12
SWIDTH 600 0
DWIDTH 8 0
BBX 8 14 0 -3
BITMAP
8800
8800
5000
2000
5000
8800
8800
1C00
2200
2200
2200
2200
2200
1C00
ENDCHAR
STARTCHAR O_X_MKR
ENCODING 13
SWIDTH 600 0
DWIDTH 8 0
BBX 8 14 0 -3
BITMAP
2200
2200
1400
0800
1400
2200
2200
7000
8800
8800
8800
8800
8800
7000
ENDCHAR
STARTCHAR X_ON_O
ENCODING 14
SWIDTH 600 0
DWIDTH 8 0
BBX 8 14 0 -3
BITMAP
4400
4400
2800
1000
2800
4400
4400
3800
4400
4400
4400
4400
4400
3800
ENDCHAR
STARTCHAR X_MARKR
ENCODING 15
SWIDTH 600 0
DWIDTH 8 0
BBX 8 14 0 -3
BITMAP
0000
0000
0000
0000
0000
0000
0000
4400
4400
2800
1000
2800
4400
4400
ENDCHAR
STARTCHAR O_MARKR
ENCODING 16
SWIDTH 600 0
DWIDTH 8 0
BBX 8 14 0 -3
BITMAP
0000
0000
0000
0000
0000
0000
0000
3800
4400
4400
4400
4400
4400
3800
ENDCHAR
STARTCHAR DELTA
ENCODING 17
SWIDTH 600 0
DWIDTH 8 0
BBX 8 14 0 -3
BITMAP
0000
0000
0000
0000
1000
2800
2800
4400
4400
8200
FE00
0000
0000
0000
ENDCHAR
STARTCHAR OHMS
ENCODING 18
SWIDTH 600 0
DWIDTH 8 0
BBX 8 14 0 -3
BITMAP
0000
0000
0000
3800
4400
8200
8200
4400
2800
2800
EE00
0000
0000
0000
ENDCHAR
STARTCHAR POS_PLS
ENCODING 19
SWIDTH 600 0
DWIDTH 8 0
BBX 8 14 0 -3
BITMAP
0000
0000
0000
0000
7C00
4400
4400
4400
C600
0000
0000
0000
0000
0000
ENDCHAR
STARTCHAR NEG_PLS
ENCODING 20
SWIDTH 600 0
DWIDTH 8 0
BBX 8 14 0 -3
BITMAP
0000
0000
0000
0000
C600
4400
4400
4400
7C00
0000
0000
0000
0000
0000
ENDCHAR
STARTCHAR RISING
ENCODING 21
SWIDTH 600 0
DWIDTH 8 0
BBX 8 14 0 -3
BITMAP
0000
0000
1E00
1000
1000
1000
3800
7C00
1000
1000
F000
0000
0000
0000
ENDCHAR
STARTCHAR FALLING
ENCODING 22
SWIDTH 600 0
DWIDTH 8 0
BBX 8 14 0 -3
BITMAP
0000
0000
F000
1000
1000
7C00
3800
1000
1000
1000
1E00
0000
0000
0000
ENDCHAR
STARTCHAR GROUND
ENCODING 23
SWIDTH 600 0
DWIDTH 8 0
BBX 8 14 0 -3
BITMAP
0000
0000
1000
1000
1000
1000
FE00
0000
7C00
0000
1000
0000
0000
0000
ENDCHAR
STARTCHAR MICRO
ENCODING 24
SWIDTH 600 0
DWIDTH 8 0
BBX 8 14 0 -3
BITMAP
0000
0000
0000
0000
0000
4400
4400
4400
4400
6400
5A00
4000
8000
0000
ENDCHAR
STARTCHAR LT_EQ
ENCODING 25
SWIDTH 600 0
DWIDTH 8 0
BBX 8 14 0 -3
BITMAP
0000
0000
6C00
2400
2400
2400
2400
2400
2400
2400
2400
0000
0000
0000
ENDCHAR
STARTCHAR PLUS_MINUS
ENCODING 26
SWIDTH 600 0
DWIDTH 8 0
BBX 8 14 0 -3
BITMAP
0000
0000
1000
1000
1000
FE00
1000
1000
1000
0000
FE00
0000
0000
0000
ENDCHAR
STARTCHAR GT_EQ
ENCODING 27
SWIDTH 600 0
DWIDTH 8 0
BBX 8 14 0 -3
BITMAP
0000
0000
4000
2000
1000
0800
1000
2000
4000
0000
7C00
0000
0000
0000
ENDCHAR
STARTCHAR MORE_UP
ENCODING 28
SWIDTH 600 0
DWIDTH 8 0
BBX 8 14 0 -3
BITMAP
0000
0000
0000
0000
1000
3800
7C00
FE00
3800
3800
3800
0000
0000
0000
ENDCHAR
STARTCHAR MORE_DOWN
ENCODING 29
SWIDTH 600 0
DWIDTH 8 0
BBX 8 14 0 -3
BITMAP
0000
0000
0000
0000
3800
3800
3800
FE00
7C00
3800
1000
0000
0000
0000
ENDCHAR
STARTCHAR MORE_LEFT
ENCODING 30
SWIDTH 600 0
DWIDTH 8 0
BBX 8 14 0 -3
BITMAP
0000
0000
0800
1800
3800
7E00
FE00
7E00
3800
1800
0800
0000
0000
0000
ENDCHAR
STARTCHAR MORE_RIGHT
ENCODING 31
SWIDTH 600 0
DWIDTH 8 0
BBX 8 14 0 -3
BITMAP
0000
0000
2000
3000
3800
FC00
FE00
FC00
3800
3000
2000
0000
0000
0000
ENDCHAR
STARTCHAR BLANK
ENCODING 32
SWIDTH 600 0
DWIDTH 8 0
BBX 8 14 0 -3
BITMAP
0000
0000
0000
0000
0000
0000
0000
0000
0000
0000
0000
0000
0000
0000
ENDCHAR
STARTCHAR !
ENCODING 33
SWIDTH 600 0
DWIDTH 8 0
BBX 8 14 0 -3
BITMAP
0000
0000
1000
1000
1000
1000
1000
1000
0000
1000
1000
0000
0000
0000
ENDCHAR
STARTCHAR "
ENCODING 34
SWIDTH 600 0
DWIDTH 8 0
BBX 8 14 0 -3
BITMAP
0000
0000
2400
2400
4800
0000
0000
0000
0000
0000
0000
0000
0000
0000
ENDCHAR
STARTCHAR #
ENCODING 35
SWIDTH 600 0
DWIDTH 8 0
BBX 8 14 0 -3
BITMAP
0000
0000
0000
4800
4800
FC00
4800
FC00
4800
4800
0000
0000
0000
0000
ENDCHAR
STARTCHAR $
ENCODING 36
SWIDTH 600 0
DWIDTH 8 0
BBX 8 14 0 -3
BITMAP
0000
0000
2800
7C00
AA00
A800
7C00
2A00
AA00
7C00
2800
0000
0000
0000
ENDCHAR
STARTCHAR %
ENCODING 37
SWIDTH 600 0
DWIDTH 8 0
BBX 8 14 0 -3
BITMAP
0000
0000
0000
4800
A800
5000
1000
2000
2800
5400
4800
0000
0000
0000
ENDCHAR
STARTCHAR &
ENCODING 38
SWIDTH 600 0
DWIDTH 8 0
BBX 8 14 0 -3
BITMAP
0000
0000
0000
3000
4800
3000
3000
7800
8C00
8800
7400
0000
0000
0000
ENDCHAR
STARTCHAR '
ENCODING 39
SWIDTH 600 0
DWIDTH 8 0
BBX 8 14 0 -3
BITMAP
0000
0000
1000
1000
2000
0000
0000
0000
0000
0000
0000
0000
0000
0000
ENDCHAR
STARTCHAR (
ENCODING 40
SWIDTH 600 0
DWIDTH 8 0
BBX 8 14 0 -3
BITMAP
0000
0000
0800
1000
2000
2000
2000
2000
2000
1000
0800
0000
0000
0000
ENDCHAR
STARTCHAR )
ENCODING 41
SWIDTH 600 0
DWIDTH 8 0
BBX 8 14 0 -3
BITMAP
0000
0000
2000
1000
0800
0800
0800
0800
0800
1000
2000
0000
0000
0000
ENDCHAR
STARTCHAR *
ENCODING 42
SWIDTH 600 0
DWIDTH 8 0
BBX 8 14 0 -3
BITMAP
0000
0000
0000
0000
1000
5400
3800
5400
1000
0000
0000
0000
0000
0000
ENDCHAR
STARTCHAR +
ENCODING 43
SWIDTH 600 0
DWIDTH 8 0
BBX 8 14 0 -3
BITMAP
0000
0000
0000
1000
1000
1000
FE00
1000
1000
1000
0000
0000
0000
0000
ENDCHAR
STARTCHAR ,
ENCODING 44
SWIDTH 600 0
DWIDTH 8 0
BBX 8 14 0 -3
BITMAP
0000
0000
0000
0000
0000
0000
0000
0000
0000
1000
1000
2000
0000
0000
ENDCHAR
STARTCHAR -
ENCODING 45
SWIDTH 600 0
DWIDTH 8 0
BBX 8 14 0 -3
BITMAP
0000
0000
0000
0000
0000
0000
FE00
0000
0000
0000
0000
0000
0000
0000
ENDCHAR
STARTCHAR .
ENCODING 46
SWIDTH 600 0
DWIDTH 8 0
BBX 8 14 0 -3
BITMAP
0000
0000
0000
0000
0000
0000
0000
0000
0000
1000
1000
0000
0000
0000
ENDCHAR
STARTCHAR /
ENCODING 47
SWIDTH 600 0
DWIDTH 8 0
BBX 8 14 0 -3
BITMAP
0000
0000
0400
0400
0800
0800
1000
1000
2000
2000
4000
0000
0000
0000
ENDCHAR
STARTCHAR 0
ENCODING 48
SWIDTH 600 0
DWIDTH 8 0
BBX 8 14 0 -3
BITMAP
0000
0000
3000
4800
8400
8400
8400
8400
8400
4800
3000
0000
0000
0000
ENDCHAR
STARTCHAR 1
ENCODING 49
SWIDTH 600 0
DWIDTH 8 0
BBX 8 14 0 -3
BITMAP
0000
0000
1000
3000
1000
1000
1000
1000
1000
1000
1000
0000
0000
0000
ENDCHAR
STARTCHAR 2
ENCODING 50
SWIDTH 600 0
DWIDTH 8 0
BBX 8 14 0 -3
BITMAP
0000
0000
3800
4400
8400
0400
0800
1000
2000
4000
FC00
0000
0000
0000
ENDCHAR
STARTCHAR 3
ENCODING 51
SWIDTH 600 0
DWIDTH 8 0
BBX 8 14 0 -3
BITMAP
0000
0000
FC00
0800
1000
3000
0800
0400
0400
8800
7000
0000
0000
0000
ENDCHAR
STARTCHAR 4
ENCODING 52
SWIDTH 600 0
DWIDTH 8 0
BBX 8 14 0 -3
BITMAP
0000
0000
0400
0C00
1400
2400
4400
8400
FC00
0400
0400
0000
0000
0000
ENDCHAR
STARTCHAR 5
ENCODING 53
SWIDTH 600 0
DWIDTH 8 0
BBX 8 14 0 -3
BITMAP
0000
0000
FC00
8000
8000
F800
0400
0400
0400
8400
7800
0000
0000
0000
ENDCHAR
STARTCHAR 6
ENCODING 54
SWIDTH 600 0
DWIDTH 8 0
BBX 8 14 0 -3
BITMAP
0000
0000
3800
4000
8000
F800
8400
8400
8400
8400
7800
0000
0000
0000
ENDCHAR
STARTCHAR 7
ENCODING 55
SWIDTH 600 0
DWIDTH 8 0
BBX 8 14 0 -3
BITMAP
0000
0000
FC00
0400
0800
0800
1000
1000
2000
2000
2000
0000
0000
0000
ENDCHAR
STARTCHAR 8
ENCODING 56
SWIDTH 600 0
DWIDTH 8 0
BBX 8 14 0 -3
BITMAP
0000
0000
7800
8400
8400
7800
8400
8400
8400
8400
7800
0000
0000
0000
ENDCHAR
STARTCHAR 9
ENCODING 57
SWIDTH 600 0
DWIDTH 8 0
BBX 8 14 0 -3
BITMAP
0000
0000
7800
8400
8400
8400
8400
7C00
0400
0800
7000
0000
0000
0000
ENDCHAR
STARTCHAR :
ENCODING 58
SWIDTH 600 0
DWIDTH 8 0
BBX 8 14 0 -3
BITMAP
0000
0000
0000
0000
1000
1000
0000
1000
1000
0000
0000
0000
0000
0000
ENDCHAR
STARTCHAR ;
ENCODING 59
SWIDTH 600 0
DWIDTH 8 0
BBX 8 14 0 -3
BITMAP
0000
0000
0000
0000
0000
1000
1000
0000
0000
1000
1000
2000
0000
0000
ENDCHAR
STARTCHAR <
ENCODING 60
SWIDTH 600 0
DWIDTH 8 0
BBX 8 14 0 -3
BITMAP
0000
0000
0000
0800
1000
2000
4000
2000
1000
0800
0000
0000
0000
0000
ENDCHAR
STARTCHAR =
ENCODING 61
SWIDTH 600 0
DWIDTH 8 0
BBX 8 14 0 -3
BITMAP
0000
0000
0000
0000
0000
7C00
0000
7C00
0000
0000
0000
0000
0000
0000
ENDCHAR
STARTCHAR >
ENCODING 62
SWIDTH 600 0
DWIDTH 8 0
BBX 8 14 0 -3
BITMAP
0000
0000
0000
4000
2000
1000
0800
1000
2000
4000
0000
0000
0000
0000
ENDCHAR
STARTCHAR ?
ENCODING 63
SWIDTH 600 0
DWIDTH 8 0
BBX 8 14 0 -3
BITMAP
0000
0000
3800
4400
0400
0800
1000
1000
0000
1000
1000
0000
0000
0000
ENDCHAR
STARTCHAR @
ENCODING 64
SWIDTH 600 0
DWIDTH 8 0
BBX 8 14 0 -3
BITMAP
0000
0000
3800
4400
9200
AA00
AA00
AA00
9A00
4400
3C00
0000
0000
0000
ENDCHAR
STARTCHAR A
ENCODING 65
SWIDTH 600 0
DWIDTH 8 0
BBX 8 14 0 -3
BITMAP
0000
0000
3000
4800
4800
8400
8400
FC00
8400
8400
8400
0000
0000
0000
ENDCHAR
STARTCHAR B
ENCODING 66
SWIDTH 600 0
DWIDTH 8 0
BBX 8 14 0 -3
BITMAP
0000
0000
F800
8400
8400
F800
8400
8400
8400
8400
F800
0000
0000
0000
ENDCHAR
STARTCHAR C
ENCODING 67
SWIDTH 600 0
DWIDTH 8 0
BBX 8 14 0 -3
BITMAP
0000
0000
7800
8400
8000
8000
8000
8000
8000
8400
7800
0000
0000
0000
ENDCHAR
STARTCHAR D
ENCODING 68
SWIDTH 600 0
DWIDTH 8 0
BBX 8 14 0 -3
BITMAP
0000
0000
F000
8800
8400
8400
8400
8400
8400
8800
F000
0000
0000
0000
ENDCHAR
STARTCHAR E
ENCODING 69
SWIDTH 600 0
DWIDTH 8 0
BBX 8 14 0 -3
BITMAP
0000
0000
FC00
8000
8000
8000
F800
8000
8000
8000
FC00
0000
0000
0000
ENDCHAR
STARTCHAR F
ENCODING 70
SWIDTH 600 0
DWIDTH 8 0
BBX 8 14 0 -3
BITMAP
0000
0000
FC00
8000
8000
8000
F000
8000
8000
8000
8000
0000
0000
0000
ENDCHAR
STARTCHAR G
ENCODING 71
SWIDTH 600 0
DWIDTH 8 0
BBX 8 14 0 -3
BITMAP
0000
0000
7800
8400
8000
8000
9C00
8400
8400
8400
7800
0000
0000
0000
ENDCHAR
STARTCHAR H
ENCODING 72
SWIDTH 600 0
DWIDTH 8 0
BBX 8 14 0 -3
BITMAP
0000
0000
8400
8400
8400
8400
FC00
8400
8400
8400
8400
0000
0000
0000
ENDCHAR
STARTCHAR I
ENCODING 73
SWIDTH 600 0
DWIDTH 8 0
BBX 8 14 0 -3
BITMAP
0000
0000
7C00
1000
1000
1000
1000
1000
1000
1000
7C00
0000
0000
0000
ENDCHAR
STARTCHAR J
ENCODING 74
SWIDTH 600 0
DWIDTH 8 0
BBX 8 14 0 -3
BITMAP
0000
0000
0400
0400
0400
0400
0400
0400
8400
8400
7800
0000
0000
0000
ENDCHAR
STARTCHAR K
ENCODING 75
SWIDTH 600 0
DWIDTH 8 0
BBX 8 14 0 -3
BITMAP
0000
0000
8400
8800
9000
A000
C000
A000
9000
8800
8400
0000
0000
0000
ENDCHAR
STARTCHAR L
ENCODING 76
SWIDTH 600 0
DWIDTH 8 0
BBX 8 14 0 -3
BITMAP
0000
0000
8000
8000
8000
8000
8000
8000
8000
8000
FC00
0000
0000
0000
ENDCHAR
STARTCHAR M
ENCODING 77
SWIDTH 600 0
DWIDTH 8 0
BBX 8 14 0 -3
BITMAP
0000
0000
8400
CC00
B400
8400
8400
8400
8400
8400
8400
0000
0000
0000
ENDCHAR
STARTCHAR N
ENCODING 78
SWIDTH 600 0
DWIDTH 8 0
BBX 8 14 0 -3
BITMAP
0000
0000
C400
C400
A400
A400
9400
9400
8C00
8C00
8400
0000
0000
0000
ENDCHAR
STARTCHAR O
ENCODING 79
SWIDTH 600 0
DWIDTH 8 0
BBX 8 14 0 -3
BITMAP
0000
0000
7800
8400
8400
8400
8400
8400
8400
8400
7800
0000
0000
0000
ENDCHAR
STARTCHAR P
ENCODING 80
SWIDTH 600 0
DWIDTH 8 0
BBX 8 14 0 -3
BITMAP
0000
0000
F800
8400
8400
8400
F800
8000
8000
8000
8000
0000
0000
0000
ENDCHAR
STARTCHAR Q
ENCODING 81
SWIDTH 600 0
DWIDTH 8 0
BBX 8 14 0 -3
BITMAP
0000
0000
7800
8400
8400
8400
8400
A400
9400
8800
7400
0000
0000
0000
ENDCHAR
STARTCHAR R
ENCODING 82
SWIDTH 600 0
DWIDTH 8 0
BBX 8 14 0 -3
BITMAP
0000
0000
F800
8400
8400
8400
F800
A000
9000
8800
8400
0000
0000
0000
ENDCHAR
STARTCHAR S
ENCODING 83
SWIDTH 600 0
DWIDTH 8 0
BBX 8 14 0 -3
BITMAP
0000
0000
7800
8400
8000
8000
7800
0400
0400
8400
7800
0000
0000
0000
ENDCHAR
STARTCHAR T
ENCODING 84
SWIDTH 600 0
DWIDTH 8 0
BBX 8 14 0 -3
BITMAP
0000
0000
FE00
1000
1000
1000
1000
1000
1000
1000
1000
0000
0000
0000
ENDCHAR
STARTCHAR U
ENCODING 85
SWIDTH 600 0
DWIDTH 8 0
BBX 8 14 0 -3
BITMAP
0000
0000
8400
8400
8400
8400
8400
8400
8400
8400
7800
0000
0000
0000
ENDCHAR
STARTCHAR V
ENCODING 86
SWIDTH 600 0
DWIDTH 8 0
BBX 8 14 0 -3
BITMAP
0000
0000
8400
8400
8400
4800
4800
4800
3000
3000
3000
0000
0000
0000
ENDCHAR
STARTCHAR W
ENCODING 87
SWIDTH 600 0
DWIDTH 8 0
BBX 8 14 0 -3
BITMAP
0000
0000
8400
8400
8400
B400
B400
CC00
CC00
8400
8400
0000
0000
0000
ENDCHAR
STARTCHAR X
ENCODING 88
SWIDTH 600 0
DWIDTH 8 0
BBX 8 14 0 -3
BITMAP
0000
0000
8400
8400
4800
4800
3000
3000
4800
8400
8400
0000
0000
0000
ENDCHAR
STARTCHAR Y
ENCODING 89
SWIDTH 600 0
DWIDTH 8 0
BBX 8 14 0 -3
BITMAP
0000
0000
4400
4400
4400
2800
2800
1000
1000
1000
1000
0000
0000
0000
ENDCHAR
STARTCHAR Z
ENCODING 90
SWIDTH 600 0
DWIDTH 8 0
BBX 8 14 0 -3
BITMAP
0000
0000
FC00
0400
0800
1000
2000
2000
4000
8000
FC00
0000
0000
0000
ENDCHAR
STARTCHAR [
ENCODING 91
SWIDTH 600 0
DWIDTH 8 0
BBX 8 14 0 -3
BITMAP
0000
0000
3800
2000
2000
2000
2000
2000
2000
2000
3800
0000
0000
0000
ENDCHAR
STARTCHAR \
ENCODING 92
SWIDTH 600 0
DWIDTH 8 0
BBX 8 14 0 -3
BITMAP
0000
0000
4000
4000
2000
2000
1000
1000
0800
0800
0400
0000
0000
0000
ENDCHAR
STARTCHAR ]
ENCODING 93
SWIDTH 600 0
DWIDTH 8 0
BBX 8 14 0 -3
BITMAP
0000
0000
3800
0800
0800
0800
0800
0800
0800
0800
3800
0000
0000
0000
ENDCHAR
STARTCHAR ^
ENCODING 94
SWIDTH 600 0
DWIDTH 8 0
BBX 8 14 0 -3
BITMAP
0000
0000
1000
2800
4400
0000
0000
0000
0000
0000
0000
0000
0000
0000
ENDCHAR
STARTCHAR _
ENCODING 95
SWIDTH 600 0
DWIDTH 8 0
BBX 8 14 0 -3
BITMAP
0000
0000
0000
0000
0000
0000
0000
0000
0000
0000
FE00
0000
0000
0000
ENDCHAR
STARTCHAR `
ENCODING 96
SWIDTH 600 0
DWIDTH 8 0
BBX 8 14 0 -3
BITMAP
0000
0000
2000
2000
1000
0000
0000
0000
0000
0000
0000
0000
0000
0000
ENDCHAR
STARTCHAR a
ENCODING 97
SWIDTH 600 0
DWIDTH 8 0
BBX 8 14 0 -3
BITMAP
0000
0000
0000
0000
3800
4400
3C00
4400
4400
4400
3C00
0000
0000
0000
ENDCHAR
STARTCHAR b
ENCODING 98
SWIDTH 600 0
DWIDTH 8 0
BBX 8 14 0 -3
BITMAP
0000
0000
4000
4000
7800
4400
4400
4400
4400
4400
7800
0000
0000
0000
ENDCHAR
STARTCHAR c
ENCODING 99
SWIDTH 600 0
DWIDTH 8 0
BBX 8 14 0 -3
BITMAP
0000
0000
0000
0000
3800
4400
4000
4000
4000
4400
3800
0000
0000
0000
ENDCHAR
STARTCHAR d
ENCODING 100
SWIDTH 600 0
DWIDTH 8 0
BBX 8 14 0 -3
BITMAP
0000
0000
0400
0400
3C00
4400
4400
4400
4400
4400
3C00
0000
0000
0000
ENDCHAR
STARTCHAR e
ENCODING 101
SWIDTH 600 0
DWIDTH 8 0
BBX 8 14 0 -3
BITMAP
0000
0000
0000
0000
3800
4400
4400
7C00
4000
4400
3800
0000
0000
0000
ENDCHAR
STARTCHAR f
ENCODING 102
SWIDTH 600 0
DWIDTH 8 0
BBX 8 14 0 -3
BITMAP
0000
0000
1800
2000
7000
2000
2000
2000
2000
2000
2000
0000
0000
0000
ENDCHAR
STARTCHAR g
ENCODING 103
SWIDTH 600 0
DWIDTH 8 0
BBX 8 14 0 -3
BITMAP
0000
0000
0000
0000
3C00
4400
4400
4400
4400
4400
3C00
0400
4400
3800
ENDCHAR
STARTCHAR h
ENCODING 104
SWIDTH 600 0
DWIDTH 8 0
BBX 8 14 0 -3
BITMAP
0000
0000
4000
4000
5800
6400
4400
4400
4400
4400
4400
0000
0000
0000
ENDCHAR
STARTCHAR i
ENCODING 105
SWIDTH 600 0
DWIDTH 8 0
BBX 8 14 0 -3
BITMAP
0000
0000
1000
0000
3000
1000
1000
1000
1000
1000
3800
0000
0000
0000
ENDCHAR
STARTCHAR j
ENCODING 106
SWIDTH 600 0
DWIDTH 8 0
BBX 8 14 0 -3
BITMAP
0000
0000
0800
0000
1800
0800
0800
0800
0800
0800
0800
0800
0800
3000
ENDCHAR
STARTCHAR k
ENCODING 107
SWIDTH 600 0
DWIDTH 8 0
BBX 8 14 0 -3
BITMAP
0000
0000
4000
4000
4400
4800
5000
6000
5000
4800
4400
0000
0000
0000
ENDCHAR
STARTCHAR l
ENCODING 108
SWIDTH 600 0
DWIDTH 8 0
BBX 8 14 0 -3
BITMAP
0000
0000
3000
1000
1000
1000
1000
1000
1000
1000
1000
0000
0000
0000
ENDCHAR
STARTCHAR m
ENCODING 109
SWIDTH 600 0
DWIDTH 8 0
BBX 8 14 0 -3
BITMAP
0000
0000
0000
0000
EC00
9200
9200
9200
9200
9200
9200
0000
0000
0000
ENDCHAR
STARTCHAR n
ENCODING 110
SWIDTH 600 0
DWIDTH 8 0
BBX 8 14 0 -3
BITMAP
0000
0000
0000
0000
5800
6400
4400
4400
4400
4400
4400
0000
0000
0000
ENDCHAR
STARTCHAR o
ENCODING 111
SWIDTH 600 0
DWIDTH 8 0
BBX 8 14 0 -3
BITMAP
0000
0000
0000
0000
3800
4400
4400
4400
4400
4400
3800
0000
0000
0000
ENDCHAR
STARTCHAR p
ENCODING 112
SWIDTH 600 0
DWIDTH 8 0
BBX 8 14 0 -3
BITMAP
0000
0000
0000
0000
7800
4400
4400
4400
4400
4400
7800
4000
4000
4000
ENDCHAR
STARTCHAR q
ENCODING 113
SWIDTH 600 0
DWIDTH 8 0
BBX 8 14 0 -3
BITMAP
0000
0000
0000
0000
3C00
4400
4400
4400
4400
4400
3C00
0400
0400
0400
ENDCHAR
STARTCHAR r
ENCODING 114
SWIDTH 600 0
DWIDTH 8 0
BBX 8 14 0 -3
BITMAP
0000
0000
0000
0000
5C00
6000
4000
4000
4000
4000
4000
0000
0000
0000
ENDCHAR
STARTCHAR s
ENCODING 115
SWIDTH 600 0
DWIDTH 8 0
BBX 8 14 0 -3
BITMAP
0000
0000
0000
0000
3800
4400
4000
3800
0400
4400
3800
0000
0000
0000
ENDCHAR
STARTCHAR t
ENCODING 116
SWIDTH 600 0
DWIDTH 8 0
BBX 8 14 0 -3
BITMAP
0000
0000
1000
1000
3800
1000
1000
1000
1000
1000
0C00
0000
0000
0000
ENDCHAR
STARTCHAR u
ENCODING 117
SWIDTH 600 0
DWIDTH 8 0
BBX 8 14 0 -3
BITMAP
0000
0000
0000
0000
4400
4400
4400
4400
4400
4C00
3400
0000
0000
0000
ENDCHAR
STARTCHAR v
ENCODING 118
SWIDTH 600 0
DWIDTH 8 0
BBX 8 14 0 -3
BITMAP
0000
0000
0000
0000
4400
4400
4400
2800
2800
1000
1000
0000
0000
0000
ENDCHAR
STARTCHAR w
ENCODING 119
SWIDTH 600 0
DWIDTH 8 0
BBX 8 14 0 -3
BITMAP
0000
0000
0000
0000
8400
8400
8400
8400
B400
CC00
8400
0000
0000
0000
ENDCHAR
STARTCHAR x
ENCODING 120
SWIDTH 600 0
DWIDTH 8 0
BBX 8 14 0 -3
BITMAP
0000
0000
0000
0000
4400
4400
2800
1000
2800
4400
4400
0000
0000
0000
ENDCHAR
STARTCHAR y
ENCODING 121
SWIDTH 600 0
DWIDTH 8 0
BBX 8 14 0 -3
BITMAP
0000
0000
0000
0000
4400
4400
4400
4400
4400
4400
3C00
0400
4400
3800
ENDCHAR
STARTCHAR z
ENCODING 122
SWIDTH 600 0
DWIDTH 8 0
BBX 8 14 0 -3
BITMAP
0000
0000
0000
0000
7C00
0400
0800
1000
2000
4000
7C00
0000
0000
0000
ENDCHAR
STARTCHAR {
ENCODING 123
SWIDTH 600 0
DWIDTH 8 0
BBX 8 14 0 -3
BITMAP
0000
0000
1C00
2000
2000
2000
4000
2000
2000
2000
1C00
0000
0000
0000
ENDCHAR
STARTCHAR |
ENCODING 124
SWIDTH 600 0
DWIDTH 8 0
BBX 8 14 0 -3
BITMAP
0000
0000
1000
1000
1000
1000
1000
1000
1000
1000
1000
0000
0000
0000
ENDCHAR
STARTCHAR }
ENCODING 125
SWIDTH 600 0
DWIDTH 8 0
BBX 8 14 0 -3
BITMAP
0000
0000
7000
0800
0800
0800
0400
0800
0800
0800
7000
0000
0000
0000
ENDCHAR
STARTCHAR ~
ENCODING 126
SWIDTH 600 0
DWIDTH 8 0
BBX 8 14 0 -3
BITMAP
0000
0000
0000
6000
9200
0C00
0000
0000
0000
0000
0000
0000
0000
0000
ENDCHAR
STARTCHAR DEL
ENCODING 127
SWIDTH 600 0
DWIDTH 8 0
BBX 8 14 0 -3
BITMAP
0000
0000
AA00
5400
AA00
5400
AA00
5400
AA00
5400
AA00
0000
0000
0000
ENDCHAR
ENDFONT
